<svg width="32" height="32" viewBox="0 0 32 32" fill="none" xmlns="http://www.w3.org/2000/svg">
<path d="M16.0001 29.3334C8.63608 29.3334 2.66675 23.3641 2.66675 16.0001C2.66675 8.63608 8.63608 2.66675 16.0001 2.66675C23.3641 2.66675 29.3334 8.63608 29.3334 16.0001C29.3334 23.3641 23.3641 29.3334 16.0001 29.3334ZM16.0001 26.6667C18.8291 26.6667 21.5422 25.5429 23.5426 23.5426C25.5429 21.5422 26.6667 18.8291 26.6667 16.0001C26.6667 13.1711 25.5429 10.458 23.5426 8.45761C21.5422 6.45722 18.8291 5.33341 16.0001 5.33341C13.1711 5.33341 10.458 6.45722 8.45761 8.45761C6.45722 10.458 5.33341 13.1711 5.33341 16.0001C5.33341 18.8291 6.45722 21.5422 8.45761 23.5426C10.458 25.5429 13.1711 26.6667 16.0001 26.6667ZM17.3334 16.0001H22.6667V18.6667H14.6667V9.33342H17.3334V16.0001Z" fill="#333333"/>
</svg>
