<svg width="12" height="12" viewBox="0 0 12 12" fill="none" xmlns="http://www.w3.org/2000/svg">
<path fill-rule="evenodd" clip-rule="evenodd" d="M5.99961 4.98818L3.51267 2.50733L1.25493 4.75955L5.9997 9.49271L10.745 4.75946L8.48728 2.50724L5.99961 4.98818ZM11.8463 5.13085C12.0512 4.92642 12.0513 4.59266 11.8463 4.38821L8.85184 1.40108C8.64993 1.19966 8.3248 1.19964 8.12286 1.40103L5.99971 3.51845L3.87719 1.40112C3.67526 1.19969 3.35009 1.19969 3.14816 1.40112L0.153699 4.38826C-0.0512329 4.59269 -0.0512333 4.92642 0.153699 5.13085L5.63519 10.5989C5.83712 10.8004 6.16229 10.8004 6.36422 10.5989L11.8463 5.13085Z" fill="white"/>
</svg>
