<svg width="16" height="16" viewBox="0 0 16 16" fill="none" xmlns="http://www.w3.org/2000/svg">
<path d="M2.66663 14.6667C2.66663 13.2522 3.22853 11.8956 4.22872 10.8954C5.22892 9.89526 6.58547 9.33335 7.99996 9.33335C9.41445 9.33335 10.771 9.89526 11.7712 10.8954C12.7714 11.8956 13.3333 13.2522 13.3333 14.6667H12C12 13.6058 11.5785 12.5884 10.8284 11.8383C10.0782 11.0881 9.06083 10.6667 7.99996 10.6667C6.93909 10.6667 5.92168 11.0881 5.17153 11.8383C4.42139 12.5884 3.99996 13.6058 3.99996 14.6667H2.66663ZM7.99996 8.66669C5.78996 8.66669 3.99996 6.87669 3.99996 4.66669C3.99996 2.45669 5.78996 0.666687 7.99996 0.666687C10.21 0.666687 12 2.45669 12 4.66669C12 6.87669 10.21 8.66669 7.99996 8.66669ZM7.99996 7.33335C9.47329 7.33335 10.6666 6.14002 10.6666 4.66669C10.6666 3.19335 9.47329 2.00002 7.99996 2.00002C6.52663 2.00002 5.33329 3.19335 5.33329 4.66669C5.33329 6.14002 6.52663 7.33335 7.99996 7.33335Z" fill="white"/>
</svg>
